<svg width="18" height="18" viewBox="0 0 18 18" fill="none" xmlns="http://www.w3.org/2000/svg">
<g clip-path="url(#clip0_220_774)">
<path d="M1.58203 0.500122H16.418C17.0141 0.500122 17.5 0.985981 17.5 1.58215V16.4181C17.5 17.0143 17.0141 17.5001 16.418 17.5001H1.58203C0.985859 17.5001 0.5 17.0143 0.5 16.4181V1.58215C0.5 0.985981 0.985859 0.500122 1.58203 0.500122ZM16.418 17.4454C16.9848 17.4454 17.4453 16.985 17.4453 16.4181V1.58215C17.4453 1.01529 16.9848 0.55481 16.418 0.55481H1.58203C1.01516 0.55481 0.554688 1.01529 0.554688 1.58215V16.4181C0.554688 16.985 1.01516 17.4454 1.58203 17.4454H16.418Z" stroke="black"/>
<path d="M11.9655 8.35401L11.9657 8.35411C11.9775 8.363 11.9946 8.36074 12.0037 8.34859L12.0037 8.34855L14.7875 4.64505L14.7876 4.64493C14.7919 4.63924 14.7938 4.63205 14.7928 4.62487L14.7927 4.62446C14.7917 4.61763 14.788 4.611 14.7819 4.60647C13.1006 3.34561 11.1028 2.67981 9.00013 2.67981C6.89752 2.67981 4.89968 3.34561 3.21834 4.60647C3.21224 4.61105 3.20839 4.6177 3.20737 4.62487L11.9655 8.35401ZM11.9655 8.35401C11.1042 7.70806 10.0771 7.36578 9.00013 7.36578C7.92301 7.36578 6.89616 7.70804 6.03481 8.35396L11.9655 8.35401ZM11.6011 8.0404L11.9887 8.27761L12.2618 7.91434L14.4177 5.04609L14.736 4.62255L14.2948 4.32926C12.7226 3.28425 10.9022 2.7345 9.00013 2.7345C7.09809 2.7345 5.27771 3.28425 3.70549 4.32926L3.26423 4.62255L3.58258 5.04609L5.73851 7.91434L6.01156 8.27761L6.39919 8.0404C7.04542 7.64493 7.76488 7.40555 8.51987 7.33414L8.97279 7.29131V6.83637V5.22907C8.97279 5.21393 8.985 5.20172 9.00013 5.20172C9.01527 5.20172 9.02748 5.21393 9.02748 5.22907V6.83637V7.29131L9.4804 7.33414C10.2354 7.40555 10.9549 7.64493 11.6011 8.0404ZM3.21273 4.64525C3.21272 4.64522 3.2127 4.6452 3.21268 4.64518L6.03474 8.35401C6.03162 8.35634 6.02902 8.35753 6.02684 8.35825C6.02446 8.35903 6.02173 8.3595 6.01872 8.3595C6.01404 8.3595 6.00952 8.35839 6.00585 8.3566C6.00271 8.35506 5.99958 8.3528 5.99633 8.34846L3.21273 4.64525Z" stroke="black"/>
</g>
<defs>
<clipPath id="clip0_220_774">
<rect width="18" height="18" fill="white"/>
</clipPath>
</defs>
</svg>
